<svg width="56" height="56" viewBox="0 0 56 56" fill="none" xmlns="http://www.w3.org/2000/svg">
<path d="M55.19 27.595C55.19 33.0528 53.5715 38.388 50.5394 42.9259C47.5072 47.4639 43.1974 51.0008 38.1551 53.0894C33.1128 55.178 27.5643 55.7245 22.2114 54.6598C16.8585 53.595 11.9416 50.9668 8.08239 47.1076C4.22316 43.2484 1.59501 38.3314 0.530252 32.9785C-0.534508 27.6256 0.0119301 22.0772 2.10053 17.0348C4.18913 11.9925 7.72607 7.68277 12.264 4.65059C16.802 1.61842 22.1372 0 27.595 0C34.9136 0 41.9325 2.90732 47.1076 8.08239C52.2827 13.2575 55.19 20.2763 55.19 27.595Z" fill="#181818"/>
<path d="M42.2625 17.7571C38.7039 12.2016 31.8442 9.13381 25.3865 10.2152C22.0984 10.7661 19.1562 12.0724 16.7044 14.3332C12.0691 18.6071 10.2564 23.8893 11.2748 30.1141C11.6391 32.3393 12.5023 34.3837 13.7309 36.2711C13.926 36.5691 13.967 36.8306 13.8624 37.1674C13.6404 37.883 13.454 38.6114 13.2567 39.3345C12.9345 40.5085 12.6155 41.6824 12.2749 42.9306C12.4603 42.8908 12.5649 42.8725 12.6662 42.8467C14.5349 42.3581 16.4058 41.875 18.2714 41.3736C18.5796 41.2918 18.8178 41.3262 19.0969 41.4919C22.8064 43.7096 26.7918 44.4747 31.0575 43.715C38.8106 42.3345 44.7079 35.5684 44.9881 27.7221C45.1163 24.1206 44.211 20.799 42.2625 17.7571ZM36.64 35.8245C34.9211 36.9587 33.1213 37.0426 31.2029 36.497C26.3327 35.1101 22.7385 32.0391 19.8567 28.0072C18.9697 26.7655 18.169 25.4861 17.8004 23.9861C17.2454 21.7254 17.7929 19.7714 19.4536 18.1304C19.9796 17.6096 20.623 17.5149 21.4054 17.5935C22.2913 17.3761 22.6954 17.9486 23.0015 18.747C23.4563 19.936 23.9628 21.1046 24.465 22.2753C24.6148 22.6261 24.645 22.9607 24.4262 23.2684C24.0243 23.8355 23.6104 24.395 23.1707 24.932C22.8226 25.357 22.7773 25.5668 23.0618 26.0467C24.7194 28.8465 27.0494 30.8652 30.081 32.066C30.5509 32.2521 30.7848 32.2048 31.1124 31.811C31.6351 31.1815 32.146 30.5423 32.6557 29.901C32.9866 29.4857 33.2183 29.3706 33.6989 29.5901C35.1506 30.2529 36.5915 30.9415 38.0174 31.6571C38.1952 31.7464 38.3622 32.0617 38.3612 32.2715C38.3547 33.7198 37.9473 34.9637 36.64 35.8245Z" fill="white"/>
</svg>
