<svg width="141" height="48" viewBox="0 0 141 48" fill="none" xmlns="http://www.w3.org/2000/svg">
<path d="M19.8781 21.0068V14.4926H12.1829V5.27026H4.67074V14.4926H0V21.0068H4.67074V35.6455C4.56494 37.9059 4.98228 40.1603 5.89025 42.2329C6.6384 43.8092 7.84017 45.126 9.34147 46.0145C10.8341 46.879 12.5005 47.3999 14.2195 47.5394C16.0811 47.6834 17.9538 47.5601 19.7805 47.1734V40.8422C18.5687 41.0109 17.3448 41.0762 16.122 41.0374C15.5756 41.0397 15.0343 40.933 14.5296 40.7235C14.025 40.5141 13.5672 40.2061 13.1829 39.8175C12.3227 38.6152 11.9283 37.1413 12.0732 35.6699V21.0312L19.8781 21.0068Z" fill="#181818"/>
<path d="M36.9023 14.3585C35.5266 14.616 34.2112 15.1291 33.0243 15.8711C31.8436 16.6136 30.7964 17.5497 29.9267 18.6403L29.3658 14.4926H22.6462V47.4296H30.0853V30.8879C30.0281 29.0966 30.3914 27.3167 31.1462 25.6912C31.7533 24.3899 32.6962 23.274 33.8779 22.4585C34.9431 21.7327 36.1545 21.2496 37.4267 21.0434C38.6521 20.8459 39.9069 20.9463 41.0853 21.3362V14.4926C39.7182 14.1382 38.2894 14.0924 36.9023 14.3585Z" fill="#181818"/>
<path d="M125.354 21.7628C124.058 19.3686 122.125 17.38 119.768 16.0171C117.227 14.6199 114.363 13.9172 111.464 13.9799C108.637 13.9374 105.854 14.6742 103.419 16.1094C100.984 17.5447 98.991 19.6231 97.6587 22.1166C96.2738 24.7468 95.5734 27.6835 95.6221 30.6558C95.5603 33.7662 96.2728 36.8432 97.6953 39.6098C99.0085 42.1515 101.018 44.267 103.488 45.7092C106.157 47.1421 109.142 47.8838 112.171 47.8667C115.2 47.8497 118.177 47.0744 120.829 45.6116C123.338 44.1553 125.361 41.9912 126.647 39.3902L120.134 37.2188C119.458 38.5009 118.384 39.5284 117.073 40.1465C115.564 40.9188 113.89 41.3124 112.195 41.2932C110.756 41.3249 109.33 41.0112 108.037 40.3783C106.867 39.7698 105.863 38.8866 105.11 37.8044C104.329 36.6015 103.863 35.2212 103.756 33.7909H127.134C127.22 33.1322 127.293 32.571 127.366 31.9123C127.427 31.3531 127.459 30.7913 127.464 30.2289C127.524 27.2771 126.818 24.3603 125.415 21.7628M103.756 27.7281C103.983 26.3714 104.503 25.0807 105.281 23.9464C105.984 22.9019 106.919 22.0337 108.012 21.4091C109.083 20.7892 110.3 20.469 111.537 20.4819C112.87 20.4652 114.185 20.7929 115.354 21.4335C116.476 22.0647 117.426 22.961 118.122 24.044C118.815 25.1382 119.179 26.4085 119.171 27.7037L103.756 27.7281Z" fill="#181818"/>
<path d="M141 42.4644C141 43.5356 140.682 44.5828 140.087 45.4735C139.492 46.3642 138.647 47.0585 137.657 47.4684C136.668 47.8784 135.579 47.9856 134.529 47.7766C133.479 47.5676 132.514 47.0518 131.757 46.2943C130.999 45.5368 130.484 44.5717 130.275 43.5211C130.066 42.4704 130.173 41.3814 130.583 40.3917C130.993 39.402 131.687 38.5561 132.577 37.9609C133.468 37.3658 134.514 37.0481 135.585 37.0481C137.021 37.0481 138.399 37.6187 139.414 38.6345C140.429 39.6502 141 41.0279 141 42.4644Z" fill="#FF574A"/>
<path d="M72.4269 14.4922V47.4292H65.6464L65.183 44.1355C64.0845 45.3174 62.7511 46.2564 61.2684 46.8924C59.7275 47.5537 58.0669 47.8901 56.3903 47.8805C54.0721 47.9351 51.7803 47.3798 49.7439 46.2703C47.8404 45.1765 46.3234 43.5183 45.4025 41.5249C44.3214 39.0941 43.8044 36.45 43.8903 33.7908V14.4922H51.3171V32.7905C51.1641 35.0123 51.7423 37.223 52.9635 39.0851C53.5755 39.8231 54.3558 40.4032 55.2386 40.7769C56.1214 41.1505 57.081 41.3066 58.0366 41.2321C59.002 41.2804 59.9659 41.1128 60.8583 40.7414C61.7507 40.37 62.549 39.8042 63.1952 39.0851C64.5692 37.2871 65.2373 35.0478 65.0732 32.7905V14.4922H72.4269Z" fill="#181818"/>
<path d="M82.6219 0H75.1829V47.4293H82.6219V0Z" fill="#181818"/>
<path d="M92.8292 0H85.3901V47.4293H92.8292V0Z" fill="#181818"/>
</svg>
