<svg width="50" height="50" viewBox="0 0 50 50" fill="none" xmlns="http://www.w3.org/2000/svg">
<path d="M49.97 24.985C49.97 29.9266 48.5046 34.7572 45.7592 38.8659C43.0138 42.9747 39.1117 46.1771 34.5463 48.0681C29.9809 49.9592 24.9572 50.454 20.1106 49.4899C15.264 48.5259 10.8122 46.1463 7.31794 42.6521C3.82372 39.1578 1.44415 34.7059 0.4801 29.8593C-0.483953 25.0127 0.0108018 19.9891 1.90186 15.4237C3.79291 10.8582 6.99532 6.95612 11.1041 4.21073C15.2128 1.46534 20.0434 0 24.985 0C31.6114 0 37.9664 2.63234 42.652 7.31793C47.3376 12.0035 49.97 18.3586 49.97 24.985Z" fill="#F7F7F7"/>
<path d="M38.2651 16.0776C35.0431 11.0475 28.8322 8.26994 22.9853 9.24906C20.0081 9.74787 17.3442 10.9306 15.1243 12.9775C10.9275 16.8472 9.28618 21.6298 10.2083 27.2659C10.5381 29.2806 11.3197 31.1317 12.4321 32.8405C12.6087 33.1104 12.6458 33.3471 12.5512 33.6521C12.3502 34.2999 12.1813 34.9595 12.0028 35.6142C11.711 36.6771 11.4222 37.74 11.1138 38.8701C11.2817 38.8341 11.3763 38.8175 11.468 38.7941C13.1601 38.3518 14.854 37.9144 16.5431 37.4604C16.8222 37.3864 17.0378 37.4175 17.2906 37.5676C20.6492 39.5755 24.2577 40.2682 28.1198 39.5804C35.1397 38.3304 40.4792 32.2043 40.7329 25.1001C40.849 21.8393 40.0293 18.8318 38.2651 16.0776ZM33.1744 32.4362C31.618 33.4631 29.9885 33.539 28.2516 33.0451C23.842 31.7893 20.5877 29.0088 17.9785 25.3583C17.1754 24.234 16.4504 23.0756 16.1167 21.7175C15.6142 19.6706 16.1099 17.9014 17.6135 16.4156C18.0897 15.9441 18.6723 15.8584 19.3807 15.9295C20.1828 15.7327 20.5487 16.251 20.8258 16.9739C21.2376 18.0504 21.6962 19.1085 22.151 20.1684C22.2866 20.486 22.3139 20.789 22.1158 21.0677C21.7519 21.5811 21.3772 22.0877 20.979 22.5739C20.6639 22.9587 20.6229 23.1487 20.8805 23.5832C22.3812 26.1182 24.4909 27.9459 27.2358 29.0331C27.6612 29.2017 27.873 29.1588 28.1696 28.8022C28.6429 28.2323 29.1054 27.6536 29.5669 27.0729C29.8665 26.6969 30.0763 26.5926 30.5115 26.7914C31.8259 27.3915 33.1305 28.015 34.4215 28.6629C34.5825 28.7438 34.7337 29.0292 34.7328 29.2192C34.7269 30.5306 34.3581 31.6568 33.1744 32.4362Z" fill="#181818"/>
</svg>
